<?xml version="1.0" encoding="utf-8"?>
<!-- Generator: Adobe Illustrator 27.6.1, SVG Export Plug-In . SVG Version: 6.00 Build 0)  -->
<svg version="1.1" id="Layer_1" xmlns="http://www.w3.org/2000/svg" xmlns:xlink="http://www.w3.org/1999/xlink" x="0px" y="0px"
	 viewBox="0 0 504 151.2" style="enable-background:new 0 0 504 151.2;" xml:space="preserve">
<style type="text/css">
	.st0{fill:none;stroke:#000000;stroke-miterlimit:8;}
	.st1{fill:#7FEE10;}
	.st2{fill:#10EEEE;}
	.st3{fill:#FFFFFF;stroke:#000000;stroke-miterlimit:8;}
	.st4{fill:none;stroke:#7FEE10;stroke-width:3;stroke-miterlimit:8;stroke-dasharray:9,3;}
	.st5{fill:none;stroke:#7F10EE;stroke-width:3;stroke-miterlimit:8;stroke-dasharray:9,3;}
	.st6{fill:none;stroke:#10EEEE;stroke-width:3;stroke-miterlimit:8;stroke-dasharray:9,3;}
	.st7{fill:none;stroke:#EF0B0B;stroke-width:3;stroke-miterlimit:8;}
	.st8{fill:none;stroke:#000000;stroke-width:4.9523;stroke-miterlimit:8;stroke-dasharray:14.8568,4.9523;}
	.st9{fill:none;stroke:#7F10EE;stroke-width:3.24;stroke-miterlimit:8;stroke-dasharray:9.72,3.24;}
	.st10{fill-rule:evenodd;clip-rule:evenodd;fill:#4472C4;}
	.st11{fill:none;stroke:#7F10EE;stroke-width:2.8929;stroke-miterlimit:8;}
	.st12{fill:none;stroke:#7F10EE;stroke-width:2.7;stroke-miterlimit:8;}
	.st13{font-family:'TimesNewRomanPS-ItalicMT';}
	.st14{font-size:7.5631px;}
	.st15{font-size:7.5619px;}
	.st16{font-size:12.024px;}
	.st17{font-family:'ArialMT';}
	.st18{font-size:16.1885px;}
	.st19{font-size:16.19px;}
	.st20{font-family:'KozGoPr6N-Regular-83pv-RKSJ-H';}
	.st21{font-size:12px;}
	.st22{font-family:'TimesNewRomanPSMT';}
</style>
<ellipse class="st0" cx="225.95" cy="67.09" rx="10" ry="9.5"/>
<path d="M31.95,29.59l-2-3l6,3l-6,3L31.95,29.59z M22.95,28.97l9.01,0v1.25l-9.01,0V28.97z"/>
<path d="M31.95,105.61l-1.99,3.01l5.99-3.03l-6.01-2.97L31.95,105.61z M22.95,106.27l9.01-0.04l-0.01-1.25l-9.01,0.04L22.95,106.27z
	"/>
<path class="st1" d="M111.12,29.59l-2-3l6,3l-6,3L111.12,29.59z M101.95,28.97l9.17,0v1.25l-9.17,0V28.97z"/>
<path class="st2" d="M111.12,105.63l-1.99-3.01l5.99,3.02l-6.01,2.97L111.12,105.63z M101.95,104.97l9.17,0.04l-0.01,1.25
	l-9.17-0.04L101.95,104.97z"/>
<path d="M251.33,13.59l-2-3l6,3l-6,3L251.33,13.59z M124.32,20.15v-7.19h127.01v1.25H124.95l0.62-0.62v6.56H124.32z"/>
<path d="M251.33,125.46l-2,3l6-3l-6-3L251.33,125.46z M124.32,115.59v10.49h127.01v-1.25H124.95l0.62,0.62v-9.87H124.32z"/>
<path class="st2" d="M157.13,67.68l1.05,3.45l1.49-6.54l-6.13,2.73L157.13,67.68z M132.33,98.64L157.52,68l-0.77-0.64l-25.19,30.64
	L132.33,98.64z"/>
<path class="st1" d="M156.84,61.44l0.7-3.54l2.13,6.36l-6.37-2.11L156.84,61.44z M132.39,36.15l24.9,24.84l-0.88,0.88l-24.9-24.84
	L132.39,36.15z"/>
<path d="M211.98,66.59l-2-3l6,3l-6,3L211.98,66.59z M202.95,65.97l9.04,0v1.25l-9.04,0V65.97z"/>
<path d="M250.79,66.59l-2-3l6,3l-6,3L250.79,66.59z M234.95,65.97l15.84,0v1.25l-15.84,0V65.97z"/>
<circle class="st3" cx="124.95" cy="29.59" r="10"/>
<rect x="35.95" y="15.59" class="st4" width="62.99" height="28"/>
<circle class="st0" cx="124.95" cy="105.59" r="10"/>
<rect x="158.95" y="43.59" class="st5" width="43" height="42"/>
<circle class="st0" cx="12.95" cy="29.59" r="10"/>
<circle class="st0" cx="12.95" cy="105.59" r="10"/>
<rect x="35.95" y="89.59" class="st6" width="62.99" height="31"/>
<path class="st7" d="M256.95,17.47c0-8.22,6.66-14.88,14.88-14.88h41.25c8.22,0,14.88,6.66,14.88,14.88v10.25
	c0,8.22-6.66,14.88-14.88,14.88h-41.25c-8.22,0-14.88-6.66-14.88-14.88V17.47z"/>
<path class="st7" d="M256.95,62.47c0-8.22,6.66-14.88,14.88-14.88h41.25c8.22,0,14.88,6.66,14.88,14.88v10.25
	c0,8.22-6.66,14.88-14.88,14.88h-41.25c-8.22,0-14.88-6.66-14.88-14.88V62.47z"/>
<path class="st7" d="M256.95,107.47c0-8.22,6.66-14.88,14.88-14.88h41.25c8.22,0,14.88,6.66,14.88,14.88v10.25
	c0,8.22-6.66,14.88-14.88,14.88h-41.25c-8.22,0-14.88-6.66-14.88-14.88V107.47z"/>
<line class="st8" x1="343.95" y1="0" x2="343.95" y2="148.41"/>
<g>
	<path d="M481.95,29.61l-2.07-3l6.22,3l-6.22,3L481.95,29.61z M432.89,28.99l49.06,0v1.25l-49.06,0V28.99z"/>
	<rect x="376.29" y="2.61" class="st9" width="97.2" height="54"/>
	<ellipse class="st0" cx="424.89" cy="29.11" rx="8" ry="8.5"/>
	<polygon class="st10" points="419.44,24.67 419.94,24.17 424.89,29.12 429.84,24.17 430.33,24.67 425.39,29.61 430.33,34.56 
		429.84,35.06 424.89,30.11 419.94,35.06 419.44,34.56 424.39,29.61 	"/>
	<polygon class="st0" points="419.44,24.67 419.94,24.17 424.89,29.12 429.84,24.17 430.33,24.67 425.39,29.61 430.33,34.56 
		429.84,35.06 424.89,30.11 419.94,35.06 419.44,34.56 424.39,29.61 	"/>
	<path class="st2" d="M414.07,33.61l-2,3l6-3l-6-3L414.07,33.61z M388.89,34.24l25.18,0l0-1.25l-25.18,0L388.89,34.24z"/>
	<path class="st1" d="M414,24.63L412,27.63l5.99-3.02l-6.01-2.98L414,24.63z M388.89,25.33L414,25.25l0-1.25l-25.11,0.08
		L388.89,25.33z"/>
</g>
<g>
	<rect x="376.39" y="79.99" class="st9" width="97.2" height="52.92"/>
	<path d="M439.38,115.57l-0.96,2.8l4.18-3.66l-5.48-1.09L439.38,115.57z M428.05,119.12l11.47-3.05l-0.27-0.99l-11.47,3.05
		L428.05,119.12z"/>
	<path d="M438.37,99.35l-0.49-2.84l3.09,4.08l-4.71,0.37L438.37,99.35z M428.99,94.35l9.55,4.54l-0.34,0.93l-9.55-4.54L428.99,94.35
		z"/>
	<path d="M482.1,107.11l-1.98-3.01l5.98,3.04l-6.02,2.96L482.1,107.11z M458.99,106.33l23.11,0.16l-0.01,1.25l-23.11-0.16
		L458.99,106.33z"/>
	<circle class="st0" cx="448.41" cy="107.29" r="9.78"/>
	<rect x="398.2" y="84.45" class="st11" width="29.57" height="18"/>
	<rect x="399.19" y="109.95" class="st12" width="27.6" height="18"/>
	<path class="st2" d="M393.3,97.95l-2,3l6-3l-6-3L393.3,97.95z M378.99,98.58l14.32,0l0-1.25l-14.32,0L378.99,98.58z"/>
	<path class="st1" d="M393.23,88.95l-2-3l6,3l-6,3L393.23,88.95z M378.99,88.33l14.24,0l0,1.25l-14.24,0V88.33z"/>
	<polygon class="st10" points="448.39,97.55 449.27,97.55 449.27,106.35 458.07,106.35 458.07,107.23 449.27,107.23 449.27,116.03 
		448.39,116.03 448.39,107.23 439.59,107.23 439.59,106.35 448.39,106.35 	"/>
	<polygon class="st0" points="448.39,97.55 449.27,97.55 449.27,106.35 458.07,106.35 458.07,107.23 449.27,107.23 449.27,116.03 
		448.39,116.03 448.39,107.23 439.59,107.23 439.59,106.35 448.39,106.35 	"/>
	<path class="st2" d="M393.3,123.95l-2,3l6-3l-6-3L393.3,123.95z M378.99,124.58l14.32,0l0-1.25l-14.32,0L378.99,124.58z"/>
	<path class="st1" d="M393.23,114.95l-2-3l6,3l-6,3L393.23,114.95z M378.99,114.33l14.24,0l0,1.25l-14.24,0V114.33z"/>
	<g>
		<path d="M412.31,112.05c0.17,0.09,0.42,0.15,0.49,0.29c0.14,0.27,0.3,0.62,0.24,0.89c-0.05,0.21-0.4,0.39-0.65,0.49
			c-0.09,0.04-0.42-0.2-0.41-0.29c0.03-0.25,0.17-0.5,0.28-0.73c0.03-0.06,0.14-0.09,0.23-0.14c-0.49-0.35-0.98-0.26-1.12,0.27
			c-0.25,0.92-0.42,1.85-0.64,2.84c0.45,0,0.8-0.02,1.15,0.01c0.11,0.01,0.21,0.12,0.31,0.19c-0.11,0.07-0.2,0.19-0.32,0.21
			c-0.26,0.03-0.53,0.03-0.8,0.01c-0.3-0.02-0.42,0.08-0.49,0.4c-0.34,1.76-0.66,3.53-1.09,5.26c-0.17,0.68-0.56,1.34-0.98,1.91
			c-0.42,0.57-1.17,0.59-1.67,0.2c-0.42-0.33-0.47-1.03-0.03-1.28c0.2-0.11,0.58-0.13,0.75-0.01c0.3,0.21,0.16,0.55-0.06,0.79
			c-0.1,0.11-0.26,0.17-0.4,0.27c0.6,0.3,0.95,0.23,1.15-0.38c0.28-0.87,0.47-1.78,0.66-2.68c0.29-1.37,0.54-2.75,0.81-4.13
			c0.02-0.1,0.01-0.2,0.02-0.35c-0.27,0-0.52,0.03-0.76-0.01c-0.14-0.02-0.27-0.14-0.41-0.21c0.14-0.07,0.28-0.17,0.43-0.19
			c0.26-0.03,0.53-0.01,0.82-0.01c0.4-1.31,0.24-2.88,1.74-3.63C411.81,112.05,412.06,112.05,412.31,112.05z"/>
		<text transform="matrix(1 0 0 1 412.265 124.1336)" class="st13 st14">NL</text>
	</g>
	<g>
		<path d="M414.83,87.28c0.17,0.09,0.42,0.15,0.49,0.29c0.14,0.27,0.3,0.62,0.24,0.89c-0.05,0.21-0.4,0.39-0.65,0.49
			c-0.09,0.04-0.42-0.2-0.41-0.29c0.03-0.25,0.17-0.5,0.28-0.73c0.03-0.06,0.14-0.09,0.23-0.14c-0.49-0.35-0.98-0.26-1.12,0.27
			c-0.25,0.92-0.42,1.85-0.64,2.84c0.45,0,0.8-0.02,1.15,0.01c0.11,0.01,0.21,0.12,0.31,0.19c-0.11,0.07-0.2,0.19-0.32,0.21
			c-0.26,0.03-0.53,0.03-0.8,0.01c-0.3-0.02-0.42,0.08-0.49,0.4c-0.34,1.76-0.66,3.53-1.09,5.26c-0.17,0.68-0.56,1.34-0.98,1.91
			c-0.42,0.57-1.17,0.59-1.67,0.2c-0.42-0.33-0.47-1.03-0.03-1.28c0.2-0.11,0.58-0.13,0.75-0.01c0.3,0.21,0.16,0.55-0.06,0.79
			c-0.1,0.11-0.26,0.17-0.4,0.27c0.6,0.3,0.95,0.23,1.15-0.38c0.28-0.87,0.47-1.78,0.66-2.68c0.29-1.37,0.54-2.75,0.81-4.13
			c0.02-0.1,0.01-0.2,0.02-0.35c-0.27,0-0.52,0.03-0.76-0.01c-0.14-0.02-0.27-0.14-0.41-0.21c0.14-0.07,0.28-0.17,0.43-0.19
			c0.26-0.03,0.53-0.01,0.82-0.01c0.4-1.31,0.24-2.88,1.74-3.63C414.33,87.28,414.58,87.28,414.83,87.28z"/>
		<text transform="matrix(1 0 0 1 414.7894 99.3601)" class="st13 st15">L</text>
	</g>
</g>
<text transform="matrix(1 0 0 1 267.7254 16.5602)" class="st13 st16">EDIP Loss</text>
<text transform="matrix(1 0 0 1 273.2961 62.5398)" class="st13 st16">BU Loss</text>
<text transform="matrix(1 0 0 1 268.1027 108.4133)" class="st13 st16">ADIP Loss</text>
<g>
	<path d="M222.72,65.29c1.15,0,2.31,0,3.5,0c0,0.15,0,0.28,0,0.44c-0.25,0.01-0.48,0.02-0.8,0.04c0.69,0.99,1.34,1.94,2.02,2.92
		c0.65-0.95,1.28-1.87,1.96-2.85c-0.28-0.04-0.5-0.08-0.75-0.12c-0.01-0.13-0.01-0.26-0.02-0.43c0.85,0,1.68,0,2.51,0
		c0,0.13,0,0.27,0,0.4c-0.08,0.02-0.16,0.07-0.23,0.06c-0.64-0.11-1,0.23-1.32,0.74c-0.57,0.9-1.19,1.75-1.79,2.63
		c-0.08,0.12-0.17,0.26-0.17,0.39c-0.02,0.68-0.01,1.37-0.01,2.1c0.37,0,0.71,0,1.07,0c0,0.18,0,0.3,0,0.45c-1.17,0-2.32,0-3.49,0
		c0-0.13,0-0.25,0-0.42c0.34,0,0.67,0,1.05,0c0-0.77,0.01-1.51-0.01-2.24c0-0.1-0.1-0.21-0.17-0.31c-0.68-0.98-1.37-1.96-2.02-2.96
		c-0.19-0.29-0.39-0.44-0.75-0.4c-0.18,0.02-0.37-0.03-0.55-0.05C222.72,65.56,222.72,65.43,222.72,65.29z"/>
	<path d="M227.08,62.71c0.5,0.42,1,0.84,1.53,1.29c-0.08,0.11-0.16,0.22-0.26,0.36c-0.28-0.18-0.56-0.31-0.79-0.51
		c-0.36-0.31-0.67-0.28-1.02,0.01c-0.23,0.18-0.49,0.32-0.77,0.5c-0.1-0.13-0.18-0.24-0.27-0.36c0.52-0.45,1.01-0.87,1.5-1.29
		C227.03,62.71,227.05,62.71,227.08,62.71z"/>
</g>
<g>
	<g>
		<path d="M177.58,66.37c0-1.55,0.02-3.13,0.05-4.01h-0.04c-0.36,1.36-1.71,4.95-2.67,7.58h-0.99c-0.72-2.14-2.13-6.17-2.5-7.59
			h-0.04c0.06,0.97,0.09,2.82,0.09,4.26v3.34h-1.05v-8.37h1.66c0.95,2.6,2.11,5.95,2.4,7.01h0.02c0.2-0.8,1.57-4.48,2.55-7.01h1.61
			v8.37h-1.08V66.37z"/>
		<path d="M187.94,66.37c0-1.55,0.02-3.13,0.05-4.01h-0.04c-0.36,1.36-1.71,4.95-2.67,7.58h-0.99c-0.72-2.14-2.13-6.17-2.5-7.59
			h-0.04c0.06,0.97,0.09,2.82,0.09,4.26v3.34h-1.05v-8.37h1.66c0.95,2.6,2.11,5.95,2.4,7.01h0.02c0.2-0.8,1.57-4.48,2.55-7.01h1.61
			v8.37h-1.08V66.37z"/>
	</g>
</g>
<g>
	<path d="M120.96,34c0-0.15,0-0.3,0-0.5c0.38,0,0.72,0,1.09,0c0-2.05,0-4.06,0-6.11c-0.36,0-0.71,0-1.08,0
		c-0.01-0.18-0.01-0.31-0.02-0.48c2.17,0,4.33,0,6.53,0c0.11,0.8,0.21,1.62,0.33,2.45c-0.18,0-0.31,0-0.47,0
		c-0.05-0.22-0.09-0.44-0.14-0.65c-0.21-0.82-0.62-1.23-1.46-1.29c-0.7-0.06-1.4-0.01-2.13-0.01c0,0.86,0,1.71,0,2.57
		c1.17,0.23,1.57-0.04,1.69-1.12c0.14,0,0.29,0,0.45,0c0,0.97,0,1.92,0,2.9c-0.15,0-0.29,0-0.42,0c-0.29-1.2-0.45-1.31-1.72-1.2
		c0,0.96,0,1.92,0,2.99c0.87-0.05,1.74-0.05,2.59-0.18c0.71-0.11,1.07-0.67,1.26-1.34c0.08-0.28,0.13-0.58,0.2-0.91
		c0.15,0,0.32,0,0.48,0c0,0.08,0,0.17,0,0.25c-0.03,0.08-0.07,0.15-0.08,0.23c-0.14,0.8-0.28,1.6-0.42,2.4
		C125.41,34,123.19,34,120.96,34z"/>
	<path d="M124.51,24.19c0.53,0.44,1.05,0.88,1.61,1.35c-0.08,0.11-0.17,0.23-0.27,0.38c-0.31-0.19-0.61-0.34-0.87-0.55
		c-0.35-0.29-0.65-0.26-1,0.01c-0.25,0.2-0.54,0.35-0.84,0.55c-0.1-0.13-0.19-0.25-0.28-0.38c0.54-0.47,1.06-0.91,1.57-1.36
		C124.46,24.19,124.48,24.19,124.51,24.19z"/>
</g>
<g>
	<path d="M121.05,109.02c0.87,0.12,1.18-0.41,1.45-1.13c0.64-1.68,1.36-3.33,2.04-4.99c0.09-0.21,0.16-0.42,0.46-0.42
		c0.3,0,0.38,0.22,0.46,0.43c0.76,1.85,1.54,3.69,2.27,5.55c0.16,0.42,0.36,0.62,0.81,0.54c0.13-0.02,0.27,0.01,0.4,0.02
		c0,0.13,0,0.27,0,0.4c-1.13,0-2.25,0-3.38,0c0-0.16,0-0.28,0-0.41c0.3-0.01,0.59-0.03,0.91-0.04c-0.19-0.47-0.34-0.89-0.53-1.29
		c-0.04-0.09-0.19-0.18-0.29-0.19c-0.75-0.02-1.51-0.01-2.26,0c-0.09,0-0.22,0.06-0.25,0.13c-0.18,0.4-0.33,0.81-0.52,1.27
		c0.33,0.04,0.6,0.08,0.88,0.12c0,0.14,0,0.26,0,0.41c-0.84,0-1.66,0-2.48,0C121.05,109.29,121.05,109.15,121.05,109.02z
		 M124.55,104.24c-0.39,0.96-0.76,1.84-1.13,2.74c0.78,0,1.49,0,2.25,0C125.3,106.07,124.94,105.19,124.55,104.24z"/>
	<path d="M125,100.06c0.5,0.42,1,0.84,1.53,1.29c-0.08,0.11-0.16,0.22-0.26,0.36c-0.28-0.18-0.56-0.31-0.79-0.51
		c-0.36-0.31-0.67-0.27-1.02,0.01c-0.23,0.18-0.49,0.32-0.77,0.5c-0.1-0.13-0.18-0.24-0.27-0.36c0.52-0.45,1.01-0.87,1.5-1.29
		C124.95,100.06,124.97,100.06,125,100.06z"/>
</g>
<text transform="matrix(1 0 0 1 37.1533 35.2358)" class="st17 st18">EDIP</text>
<g>
	<path d="M84.61,19.72c0.25,0.14,0.6,0.22,0.71,0.42c0.21,0.4,0.43,0.91,0.35,1.3c-0.07,0.31-0.58,0.57-0.95,0.72
		c-0.13,0.05-0.62-0.29-0.6-0.42c0.04-0.37,0.24-0.72,0.41-1.07c0.05-0.09,0.21-0.13,0.33-0.2c-0.71-0.51-1.43-0.38-1.63,0.39
		c-0.36,1.33-0.61,2.7-0.92,4.13c0.65,0,1.17-0.02,1.68,0.01c0.16,0.01,0.3,0.18,0.45,0.28c-0.15,0.11-0.3,0.28-0.46,0.3
		c-0.38,0.05-0.78,0.04-1.16,0.01c-0.44-0.03-0.62,0.11-0.71,0.58c-0.49,2.56-0.95,5.13-1.59,7.65c-0.25,0.99-0.81,1.95-1.43,2.78
		c-0.61,0.83-1.7,0.85-2.43,0.29c-0.62-0.48-0.68-1.49-0.05-1.86c0.29-0.16,0.85-0.19,1.09-0.01c0.44,0.31,0.23,0.8-0.08,1.15
		c-0.15,0.16-0.37,0.25-0.58,0.39c0.87,0.43,1.39,0.33,1.67-0.55c0.41-1.27,0.68-2.59,0.95-3.9c0.42-2,0.79-4,1.17-6
		c0.03-0.14,0.02-0.3,0.03-0.52c-0.4,0-0.76,0.04-1.11-0.01c-0.21-0.03-0.4-0.2-0.59-0.3c0.21-0.1,0.41-0.25,0.63-0.28
		c0.38-0.05,0.77-0.01,1.19-0.01c0.58-1.91,0.35-4.19,2.54-5.28C83.88,19.72,84.25,19.72,84.61,19.72z"/>
	<path d="M97.95,32.3c-0.1,0.51-0.19,1.03-0.29,1.54c-0.08,0-0.16,0-0.23,0c-0.03-0.22-0.07-0.44-0.08-0.66
		c-0.04-0.83-0.29-1.12-1.12-1.16c-0.83-0.04-1.65-0.04-2.48-0.01c-0.17,0.01-0.44,0.18-0.49,0.34c-0.21,0.68-0.36,1.38-0.54,2.08
		c1.82,0.22,1.91,0.18,2.77-1.01c0.22,0.47-0.13,2.07-0.62,2.66c-0.23-0.39,0.14-1.15-0.68-1.12c-0.51,0.02-1.03,0-1.6,0
		c-0.22,0.92-0.44,1.81-0.66,2.72c1.13,0,2.21,0.07,3.28-0.02c1.23-0.1,1.57-1.29,2.14-2.19c0.08,0.06,0.15,0.11,0.23,0.17
		c-0.34,0.86-0.68,1.72-1.02,2.58c-2.23,0-4.45,0-6.68,0c-0.2-0.49,0.18-0.38,0.43-0.47c0.24-0.08,0.6-0.2,0.64-0.37
		c0.47-1.74,0.89-3.49,1.33-5.28c-0.37-0.07-0.66-0.13-0.94-0.18c-0.01-0.07-0.03-0.15-0.04-0.22c0.25-0.05,0.5-0.14,0.75-0.14
		c1.97-0.01,3.93-0.01,5.9-0.01C97.95,31.78,97.95,32.04,97.95,32.3z"/>
	<path d="M90.77,29.91c-0.15,1.95-0.66,3.92-2.26,5.43c-0.35,0.33-0.77,0.62-1.21,0.83c-1.83,0.85-3.58,0.01-3.79-1.99
		c-0.29-2.63,0.5-4.96,2.6-6.71c0.74-0.62,1.63-0.91,2.61-0.72C90.03,27.02,90.72,28.05,90.77,29.91z M88.87,31.19
		c0.09-0.9,0.26-1.74,0.23-2.58c-0.02-0.41-0.33-0.99-0.67-1.15c-0.29-0.14-0.91,0.1-1.22,0.36c-1.01,0.86-1.28,2.11-1.59,3.37
		C86.71,31.19,87.71,31.19,88.87,31.19z M88.54,32.03c-1.07,0-2.09,0-3.21,0c-0.09,0.83-0.22,1.64-0.26,2.46
		c-0.03,0.55,0.07,1.23,0.7,1.29c0.45,0.04,1.06-0.24,1.39-0.58C87.99,34.35,88.31,33.22,88.54,32.03z"/>
</g>
<text transform="matrix(1 0 0 1 37.9644 110.9891)" class="st17 st19">ADIP</text>
<g>
	<path d="M84.6,97.89c0.19,0.1,0.47,0.16,0.56,0.32c0.19,0.34,0.43,0.77,0.36,1.09c-0.06,0.28-0.51,0.52-0.83,0.68
		c-0.1,0.05-0.53-0.27-0.51-0.36c0.07-0.33,0.25-0.64,0.41-0.95c0.03-0.07,0.14-0.09,0.22-0.14c-0.6-0.43-1.22-0.32-1.4,0.34
		c-0.31,1.14-0.52,2.31-0.79,3.54c0.56,0,1-0.02,1.44,0.01c0.14,0.01,0.26,0.15,0.39,0.23c-0.13,0.09-0.25,0.24-0.39,0.26
		c-0.31,0.04-0.62,0.04-0.93,0.01c-0.43-0.04-0.6,0.1-0.69,0.56c-0.41,2.19-0.82,4.4-1.36,6.56c-0.21,0.83-0.69,1.63-1.2,2.32
		c-0.53,0.71-1.46,0.73-2.08,0.25c-0.53-0.41-0.59-1.28-0.05-1.59c0.25-0.14,0.72-0.16,0.94-0.01c0.38,0.26,0.2,0.68-0.07,0.98
		c-0.12,0.14-0.32,0.22-0.49,0.33c0.74,0.37,1.19,0.28,1.43-0.47c0.35-1.09,0.58-2.22,0.82-3.34c0.36-1.71,0.67-3.43,1-5.15
		c0.02-0.12,0.02-0.25,0.02-0.44c-0.36,0-0.7,0.03-1.02-0.01c-0.16-0.02-0.29-0.17-0.44-0.26c0.16-0.08,0.31-0.22,0.47-0.24
		c0.35-0.04,0.7-0.01,1.09-0.01c0.49-1.64,0.3-3.59,2.17-4.53C83.98,97.89,84.29,97.89,84.6,97.89z"/>
	<path d="M88.26,113.73c0.09-0.13,0.15-0.3,0.27-0.39c0.35-0.28,0.82-0.45,1.06-0.79c1.03-1.44,1.99-2.92,2.99-4.38
		c0.13-0.19,0.38-0.3,0.58-0.45c0.09,0.21,0.23,0.41,0.27,0.63c0.27,1.43,0.54,2.86,0.78,4.3c0.07,0.39,0.1,0.75,0.65,0.71
		c0.06,0,0.13,0.24,0.19,0.37c-0.8,0-1.6,0-2.4,0c0.07-0.13,0.15-0.38,0.21-0.37c0.64,0.02,0.51-0.39,0.44-0.76
		c-0.04-0.23-0.1-0.46-0.16-0.73c-0.59,0-1.16,0-1.73,0c-1.03,0-1.37,0.27-1.6,1.12c0.15,0.35,0.23,0.55,0.32,0.75
		C89.5,113.73,88.88,113.73,88.26,113.73z M90.8,111.4c0.81,0,1.53,0,2.29,0c-0.17-0.88-0.33-1.69-0.51-2.63
		C91.94,109.71,91.39,110.53,90.8,111.4z"/>
	<path d="M89.57,106.98c-0.15,1.46-0.6,3.06-1.89,4.29c-0.27,0.26-0.58,0.48-0.91,0.66c-1.62,0.84-3.22,0.11-3.4-1.69
		c-0.22-2.22,0.45-4.21,2.22-5.69c0.65-0.54,1.44-0.8,2.3-0.61C89.05,104.19,89.65,105.2,89.57,106.98z M87.97,107.72
		c0.08-0.77,0.23-1.49,0.2-2.21c-0.01-0.35-0.28-0.85-0.57-0.99c-0.25-0.12-0.78,0.08-1.04,0.31c-0.87,0.74-1.09,1.81-1.37,2.89
		C86.11,107.72,86.97,107.72,87.97,107.72z M84.9,108.43c-0.06,0.83-0.18,1.66-0.15,2.48c0.02,0.7,0.57,0.98,1.16,0.72
		c0.87-0.39,1.83-2.23,1.66-3.19C86.72,108.43,85.89,108.43,84.9,108.43z"/>
</g>
<text transform="matrix(1 0 0 1 109.1058 144)"><tspan x="0" y="0" class="st20 st21">（</tspan><tspan x="12" y="0" class="st22 st21">a</tspan><tspan x="17.33" y="0" class="st20 st21">）</tspan><tspan x="29.33" y="0" class="st22 st21"> BUDDIP</tspan></text>
<text transform="matrix(1 0 0 1 371.0545 71.46)"><tspan x="0" y="0" class="st20 st21">（</tspan><tspan x="12" y="0" class="st22 st21">b</tspan><tspan x="18" y="0" class="st20 st21">）</tspan><tspan x="30" y="0" class="st22 st21"> when </tspan><tspan x="61.99" y="0" class="st22 st21">MM=LMM</tspan></text>
<text transform="matrix(1 0 0 1 373.8618 147.3936)"><tspan x="0" y="0" class="st20 st21">（</tspan><tspan x="12" y="0" class="st22 st21">c</tspan><tspan x="17.33" y="0" class="st20 st21">）</tspan><tspan x="29.33" y="0" class="st22 st21"> when </tspan><tspan x="61.32" y="0" class="st22 st21">MM=NLMM</tspan></text>
<g>
	<path d="M14.91,25.54c0.08,0.87,0.16,1.74,0.24,2.61c-0.05,0.04-0.1,0.09-0.14,0.13c-0.11-0.14-0.29-0.27-0.33-0.43
		c-0.31-1.38-0.7-1.75-1.94-1.77c-0.47-0.01-0.95,0-1.47,0c0,0.93,0,1.84,0,2.76c0.95,0.26,1.21,0.09,1.53-0.94
		c0.04-0.13,0.22-0.2,0.43-0.38c0,1.19,0,2.22,0,3.37c-0.18-0.11-0.38-0.16-0.42-0.27c-0.42-1.19-0.42-1.19-1.54-1.12
		c0,1.04,0,2.09,0,3.16c0.72,0,1.45,0.07,2.16-0.02c0.95-0.12,1.34-0.9,1.51-1.9c0.05-0.27-0.02-0.77,0.55-0.55
		c-0.14,1-0.29,2.01-0.44,3.07c-2.13,0-4.23,0-6.33,0c0-0.18,0-0.36,0-0.54c0.35,0,0.7,0,1.04,0c0-2.26,0-4.44,0-6.65
		c-0.38,0-0.71,0-1.04,0c0-0.18,0-0.36,0-0.54C10.78,25.54,12.85,25.54,14.91,25.54z"/>
	<path d="M16.34,34.9c0.06-0.09,0.13-0.26,0.19-0.25c0.51,0.06,0.63-0.3,0.72-0.76c0.27-1.33,0.56-2.66,0.86-4.02
		c-0.25-0.07-0.45-0.13-0.65-0.19c0-0.04,0-0.08,0.01-0.12c0.68,0,1.37,0,2.05,0c-0.93,0.01-0.86,0.88-1.01,1.53
		c-0.26,1.13-0.49,2.27-0.72,3.34c0.22,0.18,0.4,0.33,0.58,0.48C17.69,34.9,17.01,34.9,16.34,34.9z"/>
</g>
<g>
	<path d="M12.46,100.31c0.69,1.92,1.38,3.84,2.08,5.76c0.09,0.26,0.2,0.52,0.27,0.8c0.12,0.49,0.31,0.82,0.84,0.72
		c0.1-0.02,0.23,0.17,0.35,0.27c-0.11,0.08-0.22,0.22-0.33,0.22c-0.94,0.02-1.88,0.01-2.82,0.01c-0.07-0.46-0.07-0.46,0.79-0.58
		c-0.16-0.43-0.28-0.87-0.48-1.26c-0.07-0.14-0.29-0.25-0.44-0.26c-0.61-0.03-1.23-0.04-1.84,0c-0.17,0.01-0.39,0.16-0.47,0.33
		c-0.17,0.33-0.26,0.72-0.37,1.02c0.16,0.47,0.9-0.14,0.78,0.75c-0.8,0-1.6,0-2.4,0c0-0.18,0-0.35,0-0.53
		c0.96,0.01,0.96,0.01,1.32-0.98c0.75-2.09,1.51-4.18,2.26-6.27C12.15,100.31,12.31,100.31,12.46,100.31z M10.72,105.42
		c0.75,0,1.42,0,2.16,0c-0.36-1-0.69-1.95-1.08-3.04C11.41,103.46,11.08,104.41,10.72,105.42z"/>
	<path d="M16.85,109.67c0.06-0.09,0.13-0.25,0.18-0.25c0.49,0.06,0.61-0.29,0.7-0.74c0.26-1.29,0.55-2.58,0.83-3.91
		c-0.25-0.07-0.44-0.13-0.63-0.18c0-0.04,0-0.08,0.01-0.12c0.66,0,1.33,0,1.99,0c-0.9,0.01-0.84,0.85-0.98,1.48
		c-0.25,1.1-0.48,2.2-0.7,3.24c0.22,0.18,0.39,0.32,0.57,0.47C18.16,109.67,17.51,109.67,16.85,109.67z"/>
</g>
<text transform="matrix(0.583 0 0 0.583 282.8674 36.0325)" class="st13 st16"> </text>
<text transform="matrix(1 0 0 1 284.6057 32.0286)" class="st22 st16">(21)</text>
<text transform="matrix(0.583 0 0 0.583 282.8675 127.6897)" class="st13 st16"> </text>
<text transform="matrix(1 0 0 1 284.6058 123.6858)" class="st22 st16">(23)</text>
<text transform="matrix(0.583 0 0 0.583 282.8675 83.0622)" class="st13 st16"> </text>
<text transform="matrix(1 0 0 1 284.6058 79.0583)" class="st22 st16">(25)</text>
</svg>
